<svg xmlns="http://www.w3.org/2000/svg" xmlns:xlink="http://www.w3.org/1999/xlink" width="40" zoomAndPan="magnify" viewBox="0 0 30 30.000001" height="40" preserveAspectRatio="xMidYMid meet" version="1.0"><defs><clipPath id="e3fb3ded30"><path d="M 7 21 L 24 21 L 24 29 L 7 29 Z M 7 21 " clip-rule="nonzero"/></clipPath><clipPath id="a6b5d2b5ce"><path d="M 15.414062 21.421875 C 13.179688 21.421875 10.761719 21.546875 8.648438 22.320312 C 7.183594 22.859375 7.203125 23.457031 7.203125 24.832031 C 7.203125 26.101562 6.984375 26.933594 8.324219 27.507812 C 10.480469 28.4375 13.097656 28.535156 15.414062 28.535156 C 17.644531 28.535156 20.058594 28.414062 22.175781 27.636719 C 23.753906 27.058594 23.617188 26.3125 23.617188 24.832031 C 23.617188 23.648438 23.746094 22.988281 22.5 22.449219 C 20.34375 21.519531 17.726562 21.421875 15.414062 21.421875 " clip-rule="nonzero"/></clipPath><linearGradient x1="1.360002" gradientTransform="matrix(0.210257, 0, 0, 0.206679, 6.700174, 0.0947255)" y1="0" x2="81.114997" gradientUnits="userSpaceOnUse" y2="0" id="46475809ca"><stop stop-opacity="1" stop-color="rgb(79.998779%, 56.898499%, 34.498596%)" offset="0"/><stop stop-opacity="1" stop-color="rgb(79.998779%, 56.874084%, 34.448242%)" offset="0.015625"/><stop stop-opacity="1" stop-color="rgb(79.998779%, 56.797791%, 34.286499%)" offset="0.0234375"/><stop stop-opacity="1" stop-color="rgb(79.998779%, 56.689453%, 34.062195%)" offset="0.03125"/><stop stop-opacity="1" stop-color="rgb(79.998779%, 56.582642%, 33.837891%)" offset="0.0390625"/><stop stop-opacity="1" stop-color="rgb(79.998779%, 56.474304%, 33.613586%)" offset="0.046875"/><stop stop-opacity="1" stop-color="rgb(79.998779%, 56.365967%, 33.389282%)" offset="0.0546875"/><stop stop-opacity="1" stop-color="rgb(79.998779%, 56.259155%, 33.164978%)" offset="0.0625"/><stop stop-opacity="1" stop-color="rgb(79.998779%, 56.150818%, 32.939148%)" offset="0.0703125"/><stop stop-opacity="1" stop-color="rgb(79.998779%, 56.044006%, 32.714844%)" offset="0.078125"/><stop stop-opacity="1" stop-color="rgb(79.998779%, 55.935669%, 32.49054%)" offset="0.0859375"/><stop stop-opacity="1" stop-color="rgb(79.998779%, 55.828857%, 32.266235%)" offset="0.09375"/><stop stop-opacity="1" stop-color="rgb(79.998779%, 55.72052%, 32.041931%)" offset="0.101563"/><stop stop-opacity="1" stop-color="rgb(79.998779%, 55.612183%, 31.817627%)" offset="0.109375"/><stop stop-opacity="1" stop-color="rgb(79.998779%, 55.505371%, 31.593323%)" offset="0.117188"/><stop stop-opacity="1" stop-color="rgb(79.998779%, 55.397034%, 31.367493%)" offset="0.125"/><stop stop-opacity="1" stop-color="rgb(79.998779%, 55.290222%, 31.143188%)" offset="0.132812"/><stop stop-opacity="1" stop-color="rgb(79.998779%, 55.181885%, 30.918884%)" offset="0.140625"/><stop stop-opacity="1" stop-color="rgb(79.998779%, 55.075073%, 30.69458%)" offset="0.148438"/><stop stop-opacity="1" stop-color="rgb(79.998779%, 54.966736%, 30.470276%)" offset="0.15625"/><stop stop-opacity="1" stop-color="rgb(79.998779%, 54.858398%, 30.245972%)" offset="0.164062"/><stop stop-opacity="1" stop-color="rgb(79.998779%, 54.751587%, 30.021667%)" offset="0.171875"/><stop stop-opacity="1" stop-color="rgb(79.998779%, 54.64325%, 29.795837%)" offset="0.179688"/><stop stop-opacity="1" stop-color="rgb(79.998779%, 54.536438%, 29.571533%)" offset="0.1875"/><stop stop-opacity="1" stop-color="rgb(79.998779%, 54.428101%, 29.347229%)" offset="0.195313"/><stop stop-opacity="1" stop-color="rgb(79.998779%, 54.321289%, 29.122925%)" offset="0.203125"/><stop stop-opacity="1" stop-color="rgb(79.998779%, 54.212952%, 28.898621%)" offset="0.210937"/><stop stop-opacity="1" stop-color="rgb(79.998779%, 54.104614%, 28.674316%)" offset="0.21875"/><stop stop-opacity="1" stop-color="rgb(79.998779%, 53.997803%, 28.450012%)" offset="0.226562"/><stop stop-opacity="1" stop-color="rgb(79.998779%, 53.889465%, 28.224182%)" offset="0.234375"/><stop stop-opacity="1" stop-color="rgb(79.998779%, 53.782654%, 27.999878%)" offset="0.242188"/><stop stop-opacity="1" stop-color="rgb(79.998779%, 53.674316%, 27.775574%)" offset="0.25"/><stop stop-opacity="1" stop-color="rgb(79.998779%, 53.567505%, 27.55127%)" offset="0.257812"/><stop stop-opacity="1" stop-color="rgb(79.998779%, 53.459167%, 27.326965%)" offset="0.265625"/><stop stop-opacity="1" stop-color="rgb(79.998779%, 53.352356%, 27.102661%)" offset="0.273438"/><stop stop-opacity="1" stop-color="rgb(79.998779%, 53.244019%, 26.878357%)" offset="0.28125"/><stop stop-opacity="1" stop-color="rgb(79.998779%, 53.135681%, 26.654053%)" offset="0.289063"/><stop stop-opacity="1" stop-color="rgb(79.998779%, 53.02887%, 26.428223%)" offset="0.296875"/><stop stop-opacity="1" stop-color="rgb(79.998779%, 52.920532%, 26.203918%)" offset="0.304688"/><stop stop-opacity="1" stop-color="rgb(79.998779%, 52.813721%, 25.979614%)" offset="0.3125"/><stop stop-opacity="1" stop-color="rgb(79.998779%, 52.705383%, 25.75531%)" offset="0.320312"/><stop stop-opacity="1" stop-color="rgb(79.998779%, 52.598572%, 25.531006%)" offset="0.328125"/><stop stop-opacity="1" stop-color="rgb(79.998779%, 52.490234%, 25.306702%)" offset="0.335938"/><stop stop-opacity="1" stop-color="rgb(79.998779%, 52.381897%, 25.082397%)" offset="0.34375"/><stop stop-opacity="1" stop-color="rgb(79.998779%, 52.275085%, 24.856567%)" offset="0.351562"/><stop stop-opacity="1" stop-color="rgb(79.998779%, 52.156067%, 24.613953%)" offset="0.359375"/><stop stop-opacity="1" stop-color="rgb(79.998779%, 52.024841%, 24.345398%)" offset="0.367188"/><stop stop-opacity="1" stop-color="rgb(79.998779%, 51.890564%, 24.073792%)" offset="0.375"/><stop stop-opacity="1" stop-color="rgb(79.998779%, 51.756287%, 23.800659%)" offset="0.382813"/><stop stop-opacity="1" stop-color="rgb(79.998779%, 51.622009%, 23.527527%)" offset="0.390625"/><stop stop-opacity="1" stop-color="rgb(79.998779%, 51.487732%, 23.25592%)" offset="0.398438"/><stop stop-opacity="1" stop-color="rgb(79.998779%, 51.351929%, 22.982788%)" offset="0.40625"/><stop stop-opacity="1" stop-color="rgb(79.998779%, 51.217651%, 22.709656%)" offset="0.414063"/><stop stop-opacity="1" stop-color="rgb(79.998779%, 51.083374%, 22.436523%)" offset="0.421875"/><stop stop-opacity="1" stop-color="rgb(79.998779%, 50.949097%, 22.164917%)" offset="0.429688"/><stop stop-opacity="1" stop-color="rgb(79.998779%, 50.814819%, 21.891785%)" offset="0.4375"/><stop stop-opacity="1" stop-color="rgb(79.998779%, 50.680542%, 21.618652%)" offset="0.445312"/><stop stop-opacity="1" stop-color="rgb(79.998779%, 50.546265%, 21.347046%)" offset="0.453125"/><stop stop-opacity="1" stop-color="rgb(79.998779%, 50.410461%, 21.073914%)" offset="0.460938"/><stop stop-opacity="1" stop-color="rgb(79.998779%, 50.276184%, 20.800781%)" offset="0.46875"/><stop stop-opacity="1" stop-color="rgb(79.998779%, 50.141907%, 20.529175%)" offset="0.476563"/><stop stop-opacity="1" stop-color="rgb(79.998779%, 50.007629%, 20.256042%)" offset="0.484375"/><stop stop-opacity="1" stop-color="rgb(79.998779%, 49.873352%, 19.98291%)" offset="0.492188"/><stop stop-opacity="1" stop-color="rgb(79.998779%, 49.739075%, 19.709778%)" offset="0.5"/><stop stop-opacity="1" stop-color="rgb(79.998779%, 49.604797%, 19.438171%)" offset="0.507812"/><stop stop-opacity="1" stop-color="rgb(79.998779%, 49.468994%, 19.165039%)" offset="0.515625"/><stop stop-opacity="1" stop-color="rgb(79.998779%, 49.334717%, 18.891907%)" offset="0.523437"/><stop stop-opacity="1" stop-color="rgb(79.998779%, 49.200439%, 18.6203%)" offset="0.53125"/><stop stop-opacity="1" stop-color="rgb(79.998779%, 49.066162%, 18.347168%)" offset="0.539062"/><stop stop-opacity="1" stop-color="rgb(79.998779%, 48.931885%, 18.074036%)" offset="0.546875"/><stop stop-opacity="1" stop-color="rgb(79.998779%, 48.797607%, 17.802429%)" offset="0.554688"/><stop stop-opacity="1" stop-color="rgb(79.998779%, 48.661804%, 17.529297%)" offset="0.5625"/><stop stop-opacity="1" stop-color="rgb(79.998779%, 48.527527%, 17.256165%)" offset="0.570312"/><stop stop-opacity="1" stop-color="rgb(79.998779%, 48.39325%, 16.983032%)" offset="0.578125"/><stop stop-opacity="1" stop-color="rgb(79.998779%, 48.258972%, 16.711426%)" offset="0.585938"/><stop stop-opacity="1" stop-color="rgb(79.998779%, 48.124695%, 16.438293%)" offset="0.59375"/><stop stop-opacity="1" stop-color="rgb(79.998779%, 47.990417%, 16.165161%)" offset="0.601562"/><stop stop-opacity="1" stop-color="rgb(79.998779%, 47.85614%, 15.893555%)" offset="0.609375"/><stop stop-opacity="1" stop-color="rgb(79.998779%, 47.720337%, 15.620422%)" offset="0.617188"/><stop stop-opacity="1" stop-color="rgb(79.998779%, 47.58606%, 15.34729%)" offset="0.625"/><stop stop-opacity="1" stop-color="rgb(79.998779%, 47.451782%, 15.074158%)" offset="0.632812"/><stop stop-opacity="1" stop-color="rgb(79.998779%, 47.317505%, 14.802551%)" offset="0.640625"/><stop stop-opacity="1" stop-color="rgb(79.998779%, 47.183228%, 14.529419%)" offset="0.648438"/><stop stop-opacity="1" stop-color="rgb(79.998779%, 47.04895%, 14.256287%)" offset="0.65625"/><stop stop-opacity="1" stop-color="rgb(79.998779%, 46.914673%, 13.98468%)" offset="0.664063"/><stop stop-opacity="1" stop-color="rgb(79.998779%, 46.77887%, 13.711548%)" offset="0.671875"/><stop stop-opacity="1" stop-color="rgb(79.998779%, 46.644592%, 13.438416%)" offset="0.679688"/><stop stop-opacity="1" stop-color="rgb(79.998779%, 46.510315%, 13.166809%)" offset="0.6875"/><stop stop-opacity="1" stop-color="rgb(79.998779%, 46.376038%, 12.893677%)" offset="0.695312"/><stop stop-opacity="1" stop-color="rgb(79.998779%, 46.24176%, 12.620544%)" offset="0.703125"/><stop stop-opacity="1" stop-color="rgb(79.998779%, 46.107483%, 12.347412%)" offset="0.710937"/><stop stop-opacity="1" stop-color="rgb(79.998779%, 45.97168%, 12.075806%)" offset="0.71875"/><stop stop-opacity="1" stop-color="rgb(79.998779%, 45.837402%, 11.802673%)" offset="0.726562"/><stop stop-opacity="1" stop-color="rgb(79.998779%, 45.703125%, 11.529541%)" offset="0.734375"/><stop stop-opacity="1" stop-color="rgb(79.998779%, 45.568848%, 11.257935%)" offset="0.742187"/><stop stop-opacity="1" stop-color="rgb(79.998779%, 45.43457%, 10.984802%)" offset="0.75"/><stop stop-opacity="1" stop-color="rgb(79.998779%, 45.300293%, 10.71167%)" offset="0.757812"/><stop stop-opacity="1" stop-color="rgb(79.998779%, 45.166016%, 10.440063%)" offset="0.765625"/><stop stop-opacity="1" stop-color="rgb(79.998779%, 45.030212%, 10.166931%)" offset="0.773438"/><stop stop-opacity="1" stop-color="rgb(79.998779%, 44.895935%, 9.893799%)" offset="0.78125"/><stop stop-opacity="1" stop-color="rgb(79.998779%, 44.761658%, 9.620667%)" offset="0.789062"/><stop stop-opacity="1" stop-color="rgb(79.998779%, 44.62738%, 9.34906%)" offset="0.796875"/><stop stop-opacity="1" stop-color="rgb(79.998779%, 44.493103%, 9.075928%)" offset="0.804688"/><stop stop-opacity="1" stop-color="rgb(79.998779%, 44.358826%, 8.802795%)" offset="0.8125"/><stop stop-opacity="1" stop-color="rgb(79.998779%, 44.224548%, 8.531189%)" offset="0.820312"/><stop stop-opacity="1" stop-color="rgb(79.998779%, 44.088745%, 8.258057%)" offset="0.828125"/><stop stop-opacity="1" stop-color="rgb(79.998779%, 43.954468%, 7.984924%)" offset="0.835938"/><stop stop-opacity="1" stop-color="rgb(79.998779%, 43.82019%, 7.711792%)" offset="0.84375"/><stop stop-opacity="1" stop-color="rgb(79.998779%, 43.685913%, 7.440186%)" offset="0.851563"/><stop stop-opacity="1" stop-color="rgb(79.998779%, 43.551636%, 7.167053%)" offset="0.859375"/><stop stop-opacity="1" stop-color="rgb(79.998779%, 43.417358%, 6.893921%)" offset="0.867188"/><stop stop-opacity="1" stop-color="rgb(79.998779%, 43.281555%, 6.622314%)" offset="0.875"/><stop stop-opacity="1" stop-color="rgb(79.998779%, 43.147278%, 6.349182%)" offset="0.882812"/><stop stop-opacity="1" stop-color="rgb(79.998779%, 43.013%, 6.07605%)" offset="0.890625"/><stop stop-opacity="1" stop-color="rgb(79.998779%, 42.878723%, 5.804443%)" offset="0.898437"/><stop stop-opacity="1" stop-color="rgb(79.998779%, 42.744446%, 5.531311%)" offset="0.90625"/><stop stop-opacity="1" stop-color="rgb(79.998779%, 42.610168%, 5.258179%)" offset="0.914062"/><stop stop-opacity="1" stop-color="rgb(79.998779%, 42.475891%, 4.985046%)" offset="0.921875"/><stop stop-opacity="1" stop-color="rgb(79.998779%, 42.340088%, 4.71344%)" offset="0.929687"/><stop stop-opacity="1" stop-color="rgb(79.998779%, 42.205811%, 4.440308%)" offset="0.9375"/><stop stop-opacity="1" stop-color="rgb(79.998779%, 42.071533%, 4.167175%)" offset="0.945312"/><stop stop-opacity="1" stop-color="rgb(79.998779%, 41.937256%, 3.895569%)" offset="0.953125"/><stop stop-opacity="1" stop-color="rgb(79.998779%, 41.802979%, 3.622437%)" offset="0.960938"/><stop stop-opacity="1" stop-color="rgb(79.998779%, 41.668701%, 3.349304%)" offset="0.96875"/><stop stop-opacity="1" stop-color="rgb(79.998779%, 41.534424%, 3.077698%)" offset="0.976562"/><stop stop-opacity="1" stop-color="rgb(79.998779%, 41.398621%, 2.804565%)" offset="0.984375"/><stop stop-opacity="1" stop-color="rgb(79.998779%, 41.264343%, 2.532959%)" offset="1"/></linearGradient><clipPath id="de666b625d"><path d="M 6.070312 22 L 24 22 L 24 29 L 6.070312 29 Z M 6.070312 22 " clip-rule="nonzero"/></clipPath><clipPath id="f88aa40f94"><path d="M 7.628906 22.589844 C 6.671875 23.222656 6.738281 25.667969 7.023438 26.667969 C 7.628906 28.789062 13.222656 28.691406 14.828125 28.722656 C 17.15625 28.765625 21.835938 28.988281 23.574219 27.050781 C 24.207031 26.347656 24.121094 23.332031 23.394531 22.734375 C 23.394531 23.683594 23.875 25.871094 23.332031 26.707031 C 22.863281 27.429688 21.546875 27.664062 20.78125 27.832031 C 19.027344 28.222656 17.207031 28.347656 15.414062 28.347656 C 13.617188 28.347656 11.796875 28.222656 10.042969 27.832031 C 9.277344 27.664062 7.957031 27.429688 7.492188 26.707031 C 6.90625 25.804688 7.453125 23.511719 7.628906 22.589844 " clip-rule="nonzero"/></clipPath><clipPath id="29f67f1240"><path d="M 7 3 L 24 3 L 24 25 L 7 25 Z M 7 3 " clip-rule="nonzero"/></clipPath><clipPath id="4ab086bb61"><path d="M 8.253906 22.261719 C 8.6875 20.546875 9.550781 19.113281 10.964844 18.003906 C 12.074219 17.136719 13.953125 16.257812 14.21875 14.714844 C 14.507812 13.015625 13.539062 11.945312 12.140625 11.132812 C 10.367188 10.109375 9.050781 8.773438 8.417969 6.816406 C 8.011719 5.566406 8.273438 5.09375 9.628906 4.660156 C 11.492188 4.0625 13.550781 3.933594 15.5 3.933594 C 17.414062 3.933594 19.414062 4.066406 21.253906 4.625 C 22.625 5.042969 22.992188 5.480469 22.582031 6.773438 C 22.074219 8.375 21.148438 9.671875 19.730469 10.625 C 18.601562 11.382812 16.800781 11.976562 16.554688 13.519531 C 15.953125 17.222656 20.441406 17.507812 21.960938 20.175781 C 22.363281 20.886719 23.398438 22.640625 22.445312 23.289062 C 20.914062 24.332031 18.464844 24.398438 16.679688 24.472656 C 15.265625 24.535156 7.628906 24.730469 8.253906 22.261719 M 15.5 3.441406 C 13.449219 3.441406 11.269531 3.574219 9.316406 4.238281 C 7.757812 4.769531 7.4375 5.535156 7.902344 6.972656 C 8.515625 8.867188 9.777344 10.324219 11.492188 11.34375 C 12.773438 12.105469 14.410156 13.339844 13.558594 15.050781 C 12.8125 16.554688 10.816406 17.304688 9.65625 18.46875 C 8.566406 19.5625 7.914062 21.097656 7.628906 22.589844 C 7.105469 25.355469 16.203125 25.019531 17.570312 24.917969 C 19.234375 24.796875 21.347656 24.65625 22.769531 23.6875 C 23.632812 23.097656 23.371094 22.285156 23.097656 21.433594 C 22.46875 19.492188 21.238281 18.195312 19.449219 17.234375 C 18.1875 16.558594 16.933594 15.742188 17.046875 14.164062 C 17.175781 12.386719 18.730469 11.910156 20.046875 11.027344 C 21.648438 9.949219 22.679688 8.445312 23.191406 6.613281 C 24.109375 3.332031 17.539062 3.441406 15.5 3.441406 " clip-rule="nonzero"/></clipPath><linearGradient x1="-269.23665" gradientTransform="matrix(43.9731, 4.386548, 4.46249, -43.224772, 9772.286745, 21273.528128)" y1="0" x2="-268.802785" gradientUnits="userSpaceOnUse" y2="0" id="da9057a6c4"><stop stop-opacity="1" stop-color="rgb(89.086914%, 89.086914%, 89.086914%)" offset="0"/><stop stop-opacity="1" stop-color="rgb(88.911438%, 88.911438%, 88.911438%)" offset="0.03125"/><stop stop-opacity="1" stop-color="rgb(88.562012%, 88.562012%, 88.562012%)" offset="0.0625"/><stop stop-opacity="1" stop-color="rgb(88.212585%, 88.212585%, 88.212585%)" offset="0.09375"/><stop stop-opacity="1" stop-color="rgb(87.863159%, 87.863159%, 87.863159%)" offset="0.125"/><stop stop-opacity="1" stop-color="rgb(87.513733%, 87.513733%, 87.513733%)" offset="0.15625"/><stop stop-opacity="1" stop-color="rgb(87.164307%, 87.164307%, 87.164307%)" offset="0.1875"/><stop stop-opacity="1" stop-color="rgb(86.81488%, 86.81488%, 86.81488%)" offset="0.21875"/><stop stop-opacity="1" stop-color="rgb(86.465454%, 86.465454%, 86.465454%)" offset="0.25"/><stop stop-opacity="1" stop-color="rgb(86.116028%, 86.116028%, 86.116028%)" offset="0.28125"/><stop stop-opacity="1" stop-color="rgb(85.766602%, 85.766602%, 85.766602%)" offset="0.3125"/><stop stop-opacity="1" stop-color="rgb(85.417175%, 85.417175%, 85.417175%)" offset="0.34375"/><stop stop-opacity="1" stop-color="rgb(85.067749%, 85.067749%, 85.067749%)" offset="0.375"/><stop stop-opacity="1" stop-color="rgb(84.718323%, 84.718323%, 84.718323%)" offset="0.40625"/><stop stop-opacity="1" stop-color="rgb(84.368896%, 84.368896%, 84.368896%)" offset="0.4375"/><stop stop-opacity="1" stop-color="rgb(84.01947%, 84.01947%, 84.01947%)" offset="0.46875"/><stop stop-opacity="1" stop-color="rgb(83.670044%, 83.670044%, 83.670044%)" offset="0.5"/><stop stop-opacity="1" stop-color="rgb(83.320618%, 83.320618%, 83.320618%)" offset="0.53125"/><stop stop-opacity="1" stop-color="rgb(82.971191%, 82.971191%, 82.971191%)" offset="0.5625"/><stop stop-opacity="1" stop-color="rgb(82.621765%, 82.621765%, 82.621765%)" offset="0.59375"/><stop stop-opacity="1" stop-color="rgb(82.272339%, 82.272339%, 82.272339%)" offset="0.625"/><stop stop-opacity="1" stop-color="rgb(81.922913%, 81.922913%, 81.922913%)" offset="0.65625"/><stop stop-opacity="1" stop-color="rgb(81.573486%, 81.573486%, 81.573486%)" offset="0.6875"/><stop stop-opacity="1" stop-color="rgb(81.22406%, 81.22406%, 81.22406%)" offset="0.71875"/><stop stop-opacity="1" stop-color="rgb(80.873108%, 80.873108%, 80.873108%)" offset="0.75"/><stop stop-opacity="1" stop-color="rgb(80.523682%, 80.523682%, 80.523682%)" offset="0.78125"/><stop stop-opacity="1" stop-color="rgb(80.174255%, 80.174255%, 80.174255%)" offset="0.8125"/><stop stop-opacity="1" stop-color="rgb(79.824829%, 79.824829%, 79.824829%)" offset="0.84375"/><stop stop-opacity="1" stop-color="rgb(79.475403%, 79.475403%, 79.475403%)" offset="0.875"/><stop stop-opacity="1" stop-color="rgb(79.125977%, 79.125977%, 79.125977%)" offset="0.90625"/><stop stop-opacity="1" stop-color="rgb(78.77655%, 78.77655%, 78.77655%)" offset="0.9375"/><stop stop-opacity="1" stop-color="rgb(78.427124%, 78.427124%, 78.427124%)" offset="0.96875"/><stop stop-opacity="1" stop-color="rgb(78.077698%, 78.077698%, 78.077698%)" offset="1"/></linearGradient><clipPath id="b9312ff23f"><path d="M 6.070312 0 L 24.214844 0 L 24.214844 8 L 6.070312 8 Z M 6.070312 0 " clip-rule="nonzero"/></clipPath><clipPath id="d827bee597"><path d="M 6.824219 2.480469 C 6.824219 3.429688 6.488281 4.972656 6.917969 5.84375 C 7.667969 7.367188 10.8125 7.523438 12.238281 7.671875 C 14.617188 7.914062 17.042969 7.890625 19.414062 7.5625 C 20.503906 7.410156 23.914062 7.066406 23.914062 5.445312 C 24.085938 4.679688 24.179688 2.820312 23.820312 2.082031 C 23.070312 0.5625 19.925781 0.402344 18.5 0.257812 C 16.117188 0.0117188 13.695312 0.0390625 11.324219 0.367188 C 10.234375 0.515625 6.824219 0.863281 6.824219 2.480469 M 7.238281 5.445312 C 7.238281 4.582031 6.976562 3.300781 7.238281 2.480469 C 7.238281 1.21875 10.5 0.875 11.304688 0.757812 C 13.976562 0.367188 16.761719 0.367188 19.433594 0.757812 C 20.238281 0.875 23.496094 1.21875 23.496094 2.480469 C 23.695312 3.09375 23.695312 4.832031 23.496094 5.445312 C 23.496094 6.710938 20.238281 7.054688 19.433594 7.171875 C 16.761719 7.5625 13.976562 7.5625 11.304688 7.171875 C 10.5 7.054688 7.238281 6.710938 7.238281 5.445312 " clip-rule="nonzero"/></clipPath><linearGradient x1="-261.528749" gradientTransform="matrix(0, 11.601493, 11.802343, 0, -5111.580461, 3034.137391)" y1="0" x2="-260.84767" gradientUnits="userSpaceOnUse" y2="0" id="71eddd44e9"><stop stop-opacity="1" stop-color="rgb(66.529846%, 28.569031%, 4.096985%)" offset="0"/><stop stop-opacity="1" stop-color="rgb(66.47644%, 28.459167%, 4.045105%)" offset="0.0078125"/><stop stop-opacity="1" stop-color="rgb(66.371155%, 28.240967%, 3.939819%)" offset="0.015625"/><stop stop-opacity="1" stop-color="rgb(66.265869%, 28.02124%, 3.83606%)" offset="0.0234375"/><stop stop-opacity="1" stop-color="rgb(66.160583%, 27.80304%, 3.730774%)" offset="0.03125"/><stop stop-opacity="1" stop-color="rgb(66.055298%, 27.584839%, 3.627014%)" offset="0.0390625"/><stop stop-opacity="1" stop-color="rgb(65.950012%, 27.366638%, 3.521729%)" offset="0.046875"/><stop stop-opacity="1" stop-color="rgb(65.844727%, 27.148438%, 3.417969%)" offset="0.0546875"/><stop stop-opacity="1" stop-color="rgb(65.739441%, 26.930237%, 3.312683%)" offset="0.0625"/><stop stop-opacity="1" stop-color="rgb(65.634155%, 26.71051%, 3.208923%)" offset="0.0703125"/><stop stop-opacity="1" stop-color="rgb(65.52887%, 26.49231%, 3.105164%)" offset="0.078125"/><stop stop-opacity="1" stop-color="rgb(65.423584%, 26.274109%, 2.999878%)" offset="0.0859375"/><stop stop-opacity="1" stop-color="rgb(65.318298%, 26.055908%, 2.896118%)" offset="0.09375"/><stop stop-opacity="1" stop-color="rgb(65.213013%, 25.837708%, 2.790833%)" offset="0.101562"/><stop stop-opacity="1" stop-color="rgb(65.107727%, 25.619507%, 2.687073%)" offset="0.109375"/><stop stop-opacity="1" stop-color="rgb(65.002441%, 25.401306%, 2.581787%)" offset="0.117188"/><stop stop-opacity="1" stop-color="rgb(64.897156%, 25.18158%, 2.478027%)" offset="0.125"/><stop stop-opacity="1" stop-color="rgb(64.79187%, 24.963379%, 2.372742%)" offset="0.132812"/><stop stop-opacity="1" stop-color="rgb(64.686584%, 24.745178%, 2.268982%)" offset="0.140625"/><stop stop-opacity="1" stop-color="rgb(64.581299%, 24.526978%, 2.163696%)" offset="0.148437"/><stop stop-opacity="1" stop-color="rgb(64.476013%, 24.308777%, 2.059937%)" offset="0.15625"/><stop stop-opacity="1" stop-color="rgb(64.370728%, 24.090576%, 1.954651%)" offset="0.164062"/><stop stop-opacity="1" stop-color="rgb(64.265442%, 23.87085%, 1.850891%)" offset="0.171875"/><stop stop-opacity="1" stop-color="rgb(64.160156%, 23.652649%, 1.747131%)" offset="0.179687"/><stop stop-opacity="1" stop-color="rgb(64.054871%, 23.434448%, 1.641846%)" offset="0.1875"/><stop stop-opacity="1" stop-color="rgb(63.949585%, 23.216248%, 1.538086%)" offset="0.195312"/><stop stop-opacity="1" stop-color="rgb(63.844299%, 22.998047%, 1.4328%)" offset="0.203125"/><stop stop-opacity="1" stop-color="rgb(63.739014%, 22.779846%, 1.329041%)" offset="0.210937"/><stop stop-opacity="1" stop-color="rgb(63.633728%, 22.56012%, 1.223755%)" offset="0.21875"/><stop stop-opacity="1" stop-color="rgb(63.528442%, 22.341919%, 1.119995%)" offset="0.226562"/><stop stop-opacity="1" stop-color="rgb(63.423157%, 22.123718%, 1.014709%)" offset="0.234375"/><stop stop-opacity="1" stop-color="rgb(63.317871%, 21.905518%, 0.91095%)" offset="0.242188"/><stop stop-opacity="1" stop-color="rgb(63.212585%, 21.687317%, 0.805664%)" offset="0.25"/><stop stop-opacity="1" stop-color="rgb(63.1073%, 21.469116%, 0.701904%)" offset="0.257812"/><stop stop-opacity="1" stop-color="rgb(63.002014%, 21.250916%, 0.598145%)" offset="0.265625"/><stop stop-opacity="1" stop-color="rgb(62.896729%, 21.031189%, 0.492859%)" offset="0.273437"/><stop stop-opacity="1" stop-color="rgb(62.791443%, 20.812988%, 0.389099%)" offset="0.28125"/><stop stop-opacity="1" stop-color="rgb(62.686157%, 20.594788%, 0.283813%)" offset="0.289062"/><stop stop-opacity="1" stop-color="rgb(62.580872%, 20.376587%, 0.180054%)" offset="0.296875"/><stop stop-opacity="1" stop-color="rgb(62.463379%, 20.133972%, 0.0640869%)" offset="0.3125"/><stop stop-opacity="1" stop-color="rgb(62.399292%, 19.999695%, 0%)" offset="0.375"/><stop stop-opacity="1" stop-color="rgb(62.399292%, 19.999695%, 0%)" offset="0.5"/><stop stop-opacity="1" stop-color="rgb(62.399292%, 19.999695%, 0%)" offset="1"/></linearGradient><clipPath id="f349cca976"><path d="M 7 0 L 24 0 L 24 8 L 7 8 Z M 7 0 " clip-rule="nonzero"/></clipPath><clipPath id="c71fa99421"><path d="M 15.367188 0.40625 C 13.136719 0.40625 10.71875 0.53125 8.605469 1.304688 C 7.140625 1.84375 7.160156 2.441406 7.160156 3.816406 C 7.160156 5.085938 6.945312 5.917969 8.28125 6.492188 C 10.4375 7.421875 13.054688 7.523438 15.367188 7.523438 C 17.601562 7.523438 20.015625 7.398438 22.132812 6.621094 C 23.710938 6.042969 23.578125 5.296875 23.578125 3.816406 C 23.578125 2.632812 23.703125 1.972656 22.457031 1.433594 C 20.300781 0.503906 17.683594 0.40625 15.367188 0.40625 " clip-rule="nonzero"/></clipPath><linearGradient x1="1.160999" gradientTransform="matrix(0.210257, 0, 0, 0.206679, 6.700174, 0.0947255)" y1="0" x2="80.911994" gradientUnits="userSpaceOnUse" y2="0" id="2d10423a12"><stop stop-opacity="1" stop-color="rgb(79.998779%, 56.898499%, 34.498596%)" offset="0"/><stop stop-opacity="1" stop-color="rgb(79.998779%, 56.874084%, 34.448242%)" offset="0.015625"/><stop stop-opacity="1" stop-color="rgb(79.998779%, 56.796265%, 34.286499%)" offset="0.0234375"/><stop stop-opacity="1" stop-color="rgb(79.998779%, 56.689453%, 34.060669%)" offset="0.03125"/><stop stop-opacity="1" stop-color="rgb(79.998779%, 56.581116%, 33.836365%)" offset="0.0390625"/><stop stop-opacity="1" stop-color="rgb(79.998779%, 56.474304%, 33.612061%)" offset="0.046875"/><stop stop-opacity="1" stop-color="rgb(79.998779%, 56.365967%, 33.387756%)" offset="0.0546875"/><stop stop-opacity="1" stop-color="rgb(79.998779%, 56.257629%, 33.163452%)" offset="0.0625"/><stop stop-opacity="1" stop-color="rgb(79.998779%, 56.150818%, 32.939148%)" offset="0.0703125"/><stop stop-opacity="1" stop-color="rgb(79.998779%, 56.04248%, 32.714844%)" offset="0.078125"/><stop stop-opacity="1" stop-color="rgb(79.998779%, 55.935669%, 32.489014%)" offset="0.0859375"/><stop stop-opacity="1" stop-color="rgb(79.998779%, 55.827332%, 32.264709%)" offset="0.09375"/><stop stop-opacity="1" stop-color="rgb(79.998779%, 55.72052%, 32.040405%)" offset="0.101562"/><stop stop-opacity="1" stop-color="rgb(79.998779%, 55.612183%, 31.816101%)" offset="0.109375"/><stop stop-opacity="1" stop-color="rgb(79.998779%, 55.505371%, 31.591797%)" offset="0.117188"/><stop stop-opacity="1" stop-color="rgb(79.998779%, 55.397034%, 31.367493%)" offset="0.125"/><stop stop-opacity="1" stop-color="rgb(79.998779%, 55.288696%, 31.143188%)" offset="0.132813"/><stop stop-opacity="1" stop-color="rgb(79.998779%, 55.181885%, 30.918884%)" offset="0.140625"/><stop stop-opacity="1" stop-color="rgb(79.998779%, 55.073547%, 30.693054%)" offset="0.148438"/><stop stop-opacity="1" stop-color="rgb(79.998779%, 54.966736%, 30.46875%)" offset="0.15625"/><stop stop-opacity="1" stop-color="rgb(79.998779%, 54.858398%, 30.244446%)" offset="0.164062"/><stop stop-opacity="1" stop-color="rgb(79.998779%, 54.751587%, 30.020142%)" offset="0.171875"/><stop stop-opacity="1" stop-color="rgb(79.998779%, 54.64325%, 29.795837%)" offset="0.179688"/><stop stop-opacity="1" stop-color="rgb(79.998779%, 54.536438%, 29.571533%)" offset="0.1875"/><stop stop-opacity="1" stop-color="rgb(79.998779%, 54.428101%, 29.347229%)" offset="0.195312"/><stop stop-opacity="1" stop-color="rgb(79.998779%, 54.319763%, 29.122925%)" offset="0.203125"/><stop stop-opacity="1" stop-color="rgb(79.998779%, 54.212952%, 28.897095%)" offset="0.210938"/><stop stop-opacity="1" stop-color="rgb(79.998779%, 54.104614%, 28.672791%)" offset="0.21875"/><stop stop-opacity="1" stop-color="rgb(79.998779%, 53.997803%, 28.448486%)" offset="0.226562"/><stop stop-opacity="1" stop-color="rgb(79.998779%, 53.889465%, 28.224182%)" offset="0.234375"/><stop stop-opacity="1" stop-color="rgb(79.998779%, 53.782654%, 27.999878%)" offset="0.242188"/><stop stop-opacity="1" stop-color="rgb(79.998779%, 53.674316%, 27.775574%)" offset="0.25"/><stop stop-opacity="1" stop-color="rgb(79.998779%, 53.565979%, 27.55127%)" offset="0.257812"/><stop stop-opacity="1" stop-color="rgb(79.998779%, 53.459167%, 27.325439%)" offset="0.265625"/><stop stop-opacity="1" stop-color="rgb(79.998779%, 53.35083%, 27.101135%)" offset="0.273437"/><stop stop-opacity="1" stop-color="rgb(79.998779%, 53.244019%, 26.876831%)" offset="0.28125"/><stop stop-opacity="1" stop-color="rgb(79.998779%, 53.135681%, 26.652527%)" offset="0.289063"/><stop stop-opacity="1" stop-color="rgb(79.998779%, 53.02887%, 26.428223%)" offset="0.296875"/><stop stop-opacity="1" stop-color="rgb(79.998779%, 52.920532%, 26.203918%)" offset="0.304688"/><stop stop-opacity="1" stop-color="rgb(79.998779%, 52.813721%, 25.979614%)" offset="0.3125"/><stop stop-opacity="1" stop-color="rgb(79.998779%, 52.705383%, 25.75531%)" offset="0.320312"/><stop stop-opacity="1" stop-color="rgb(79.998779%, 52.597046%, 25.52948%)" offset="0.328125"/><stop stop-opacity="1" stop-color="rgb(79.998779%, 52.490234%, 25.305176%)" offset="0.335938"/><stop stop-opacity="1" stop-color="rgb(79.998779%, 52.381897%, 25.080872%)" offset="0.34375"/><stop stop-opacity="1" stop-color="rgb(79.998779%, 52.275085%, 24.856567%)" offset="0.351563"/><stop stop-opacity="1" stop-color="rgb(79.998779%, 52.156067%, 24.613953%)" offset="0.359375"/><stop stop-opacity="1" stop-color="rgb(79.998779%, 52.024841%, 24.345398%)" offset="0.367188"/><stop stop-opacity="1" stop-color="rgb(79.998779%, 51.890564%, 24.072266%)" offset="0.375"/><stop stop-opacity="1" stop-color="rgb(79.998779%, 51.756287%, 23.800659%)" offset="0.382812"/><stop stop-opacity="1" stop-color="rgb(79.998779%, 51.622009%, 23.527527%)" offset="0.390625"/><stop stop-opacity="1" stop-color="rgb(79.998779%, 51.486206%, 23.254395%)" offset="0.398438"/><stop stop-opacity="1" stop-color="rgb(79.998779%, 51.351929%, 22.981262%)" offset="0.40625"/><stop stop-opacity="1" stop-color="rgb(79.998779%, 51.217651%, 22.709656%)" offset="0.414063"/><stop stop-opacity="1" stop-color="rgb(79.998779%, 51.083374%, 22.436523%)" offset="0.421875"/><stop stop-opacity="1" stop-color="rgb(79.998779%, 50.949097%, 22.163391%)" offset="0.429688"/><stop stop-opacity="1" stop-color="rgb(79.998779%, 50.814819%, 21.891785%)" offset="0.4375"/><stop stop-opacity="1" stop-color="rgb(79.998779%, 50.680542%, 21.618652%)" offset="0.445313"/><stop stop-opacity="1" stop-color="rgb(79.998779%, 50.544739%, 21.34552%)" offset="0.453125"/><stop stop-opacity="1" stop-color="rgb(79.998779%, 50.410461%, 21.073914%)" offset="0.460938"/><stop stop-opacity="1" stop-color="rgb(79.998779%, 50.276184%, 20.800781%)" offset="0.46875"/><stop stop-opacity="1" stop-color="rgb(79.998779%, 50.141907%, 20.527649%)" offset="0.476562"/><stop stop-opacity="1" stop-color="rgb(79.998779%, 50.007629%, 20.256042%)" offset="0.484375"/><stop stop-opacity="1" stop-color="rgb(79.998779%, 49.873352%, 19.98291%)" offset="0.492188"/><stop stop-opacity="1" stop-color="rgb(79.998779%, 49.739075%, 19.709778%)" offset="0.5"/><stop stop-opacity="1" stop-color="rgb(79.998779%, 49.603271%, 19.436646%)" offset="0.507813"/><stop stop-opacity="1" stop-color="rgb(79.998779%, 49.468994%, 19.165039%)" offset="0.515625"/><stop stop-opacity="1" stop-color="rgb(79.998779%, 49.334717%, 18.891907%)" offset="0.523438"/><stop stop-opacity="1" stop-color="rgb(79.998779%, 49.200439%, 18.618774%)" offset="0.53125"/><stop stop-opacity="1" stop-color="rgb(79.998779%, 49.066162%, 18.347168%)" offset="0.539062"/><stop stop-opacity="1" stop-color="rgb(79.998779%, 48.931885%, 18.074036%)" offset="0.546875"/><stop stop-opacity="1" stop-color="rgb(79.998779%, 48.796082%, 17.800903%)" offset="0.554688"/><stop stop-opacity="1" stop-color="rgb(79.998779%, 48.661804%, 17.529297%)" offset="0.5625"/><stop stop-opacity="1" stop-color="rgb(79.998779%, 48.527527%, 17.256165%)" offset="0.570313"/><stop stop-opacity="1" stop-color="rgb(79.998779%, 48.39325%, 16.983032%)" offset="0.578125"/><stop stop-opacity="1" stop-color="rgb(79.998779%, 48.258972%, 16.711426%)" offset="0.585938"/><stop stop-opacity="1" stop-color="rgb(79.998779%, 48.124695%, 16.438293%)" offset="0.59375"/><stop stop-opacity="1" stop-color="rgb(79.998779%, 47.990417%, 16.165161%)" offset="0.601563"/><stop stop-opacity="1" stop-color="rgb(79.998779%, 47.854614%, 15.892029%)" offset="0.609375"/><stop stop-opacity="1" stop-color="rgb(79.998779%, 47.720337%, 15.620422%)" offset="0.617188"/><stop stop-opacity="1" stop-color="rgb(79.998779%, 47.58606%, 15.34729%)" offset="0.625"/><stop stop-opacity="1" stop-color="rgb(79.998779%, 47.451782%, 15.074158%)" offset="0.632812"/><stop stop-opacity="1" stop-color="rgb(79.998779%, 47.317505%, 14.802551%)" offset="0.640625"/><stop stop-opacity="1" stop-color="rgb(79.998779%, 47.183228%, 14.529419%)" offset="0.648438"/><stop stop-opacity="1" stop-color="rgb(79.998779%, 47.04895%, 14.256287%)" offset="0.65625"/><stop stop-opacity="1" stop-color="rgb(79.998779%, 46.913147%, 13.98468%)" offset="0.664062"/><stop stop-opacity="1" stop-color="rgb(79.998779%, 46.77887%, 13.711548%)" offset="0.671875"/><stop stop-opacity="1" stop-color="rgb(79.998779%, 46.644592%, 13.438416%)" offset="0.679687"/><stop stop-opacity="1" stop-color="rgb(79.998779%, 46.510315%, 13.165283%)" offset="0.6875"/><stop stop-opacity="1" stop-color="rgb(79.998779%, 46.376038%, 12.893677%)" offset="0.695313"/><stop stop-opacity="1" stop-color="rgb(79.998779%, 46.24176%, 12.620544%)" offset="0.703125"/><stop stop-opacity="1" stop-color="rgb(79.998779%, 46.107483%, 12.347412%)" offset="0.710938"/><stop stop-opacity="1" stop-color="rgb(79.998779%, 45.97168%, 12.075806%)" offset="0.71875"/><stop stop-opacity="1" stop-color="rgb(79.998779%, 45.837402%, 11.802673%)" offset="0.726563"/><stop stop-opacity="1" stop-color="rgb(79.998779%, 45.703125%, 11.529541%)" offset="0.734375"/><stop stop-opacity="1" stop-color="rgb(79.998779%, 45.568848%, 11.257935%)" offset="0.742188"/><stop stop-opacity="1" stop-color="rgb(79.998779%, 45.43457%, 10.984802%)" offset="0.75"/><stop stop-opacity="1" stop-color="rgb(79.998779%, 45.300293%, 10.71167%)" offset="0.757812"/><stop stop-opacity="1" stop-color="rgb(79.998779%, 45.166016%, 10.440063%)" offset="0.765625"/><stop stop-opacity="1" stop-color="rgb(79.998779%, 45.030212%, 10.166931%)" offset="0.773438"/><stop stop-opacity="1" stop-color="rgb(79.998779%, 44.895935%, 9.893799%)" offset="0.78125"/><stop stop-opacity="1" stop-color="rgb(79.998779%, 44.761658%, 9.620667%)" offset="0.789062"/><stop stop-opacity="1" stop-color="rgb(79.998779%, 44.62738%, 9.34906%)" offset="0.796875"/><stop stop-opacity="1" stop-color="rgb(79.998779%, 44.493103%, 9.075928%)" offset="0.804688"/><stop stop-opacity="1" stop-color="rgb(79.998779%, 44.358826%, 8.802795%)" offset="0.8125"/><stop stop-opacity="1" stop-color="rgb(79.998779%, 44.224548%, 8.531189%)" offset="0.820313"/><stop stop-opacity="1" stop-color="rgb(79.998779%, 44.088745%, 8.258057%)" offset="0.828125"/><stop stop-opacity="1" stop-color="rgb(79.998779%, 43.954468%, 7.984924%)" offset="0.835938"/><stop stop-opacity="1" stop-color="rgb(79.998779%, 43.82019%, 7.713318%)" offset="0.84375"/><stop stop-opacity="1" stop-color="rgb(79.998779%, 43.685913%, 7.440186%)" offset="0.851563"/><stop stop-opacity="1" stop-color="rgb(79.998779%, 43.551636%, 7.167053%)" offset="0.859375"/><stop stop-opacity="1" stop-color="rgb(79.998779%, 43.417358%, 6.893921%)" offset="0.867188"/><stop stop-opacity="1" stop-color="rgb(79.998779%, 43.283081%, 6.622314%)" offset="0.875"/><stop stop-opacity="1" stop-color="rgb(79.998779%, 43.147278%, 6.349182%)" offset="0.882813"/><stop stop-opacity="1" stop-color="rgb(79.998779%, 43.013%, 6.07605%)" offset="0.890625"/><stop stop-opacity="1" stop-color="rgb(79.998779%, 42.878723%, 5.804443%)" offset="0.898438"/><stop stop-opacity="1" stop-color="rgb(79.998779%, 42.744446%, 5.531311%)" offset="0.90625"/><stop stop-opacity="1" stop-color="rgb(79.998779%, 42.610168%, 5.258179%)" offset="0.914062"/><stop stop-opacity="1" stop-color="rgb(79.998779%, 42.475891%, 4.986572%)" offset="0.921875"/><stop stop-opacity="1" stop-color="rgb(79.998779%, 42.341614%, 4.71344%)" offset="0.929688"/><stop stop-opacity="1" stop-color="rgb(79.998779%, 42.205811%, 4.440308%)" offset="0.9375"/><stop stop-opacity="1" stop-color="rgb(79.998779%, 42.071533%, 4.168701%)" offset="0.945313"/><stop stop-opacity="1" stop-color="rgb(79.998779%, 41.937256%, 3.895569%)" offset="0.953125"/><stop stop-opacity="1" stop-color="rgb(79.998779%, 41.802979%, 3.622437%)" offset="0.960938"/><stop stop-opacity="1" stop-color="rgb(79.998779%, 41.668701%, 3.349304%)" offset="0.96875"/><stop stop-opacity="1" stop-color="rgb(79.998779%, 41.534424%, 3.077698%)" offset="0.976563"/><stop stop-opacity="1" stop-color="rgb(79.998779%, 41.398621%, 2.804565%)" offset="0.984375"/><stop stop-opacity="1" stop-color="rgb(79.998779%, 41.264343%, 2.532959%)" offset="1"/></linearGradient></defs><g clip-path="url(#e3fb3ded30)"><g clip-path="url(#a6b5d2b5ce)"><path fill="url(#46475809ca)" d="M 6.984375 21.421875 L 6.984375 28.535156 L 23.753906 28.535156 L 23.753906 21.421875 Z M 6.984375 21.421875 " fill-rule="nonzero"/></g></g><g clip-path="url(#de666b625d)"><g clip-path="url(#f88aa40f94)"><path fill="#9f3300" d="M 6.605469 22.589844 L 24.207031 22.414062 L 24.273438 28.988281 L 6.671875 29.160156 Z M 6.605469 22.589844 " fill-opacity="1" fill-rule="nonzero"/></g></g><path fill="#a85e14" d="M 23.230469 23.203125 C 23.289062 24.5625 23.4375 25.722656 22.046875 26.460938 C 19.558594 27.78125 16.203125 27.714844 13.46875 27.644531 C 12.027344 27.605469 8.765625 27.796875 7.722656 26.488281 C 7.203125 25.835938 7.566406 23.992188 7.59375 23.203125 C 7.148438 23.691406 7.132812 26.320312 7.589844 26.808594 C 9.164062 28.507812 13.355469 28.324219 15.414062 28.324219 C 17.632812 28.324219 21.246094 28.433594 23.097656 26.933594 C 23.695312 26.449219 23.722656 23.742188 23.230469 23.203125 " fill-opacity="1" fill-rule="nonzero"/><path fill="#ffb600" d="M 23.316406 23.96875 C 23.316406 24.390625 21.886719 24.851562 21.617188 24.945312 C 19.65625 25.640625 17.5 25.792969 15.433594 25.792969 C 13.339844 25.792969 11.167969 25.609375 9.1875 24.894531 C 9.085938 24.859375 7.421875 24.003906 7.515625 23.953125 C 7.730469 23.839844 9.074219 24.476562 9.3125 24.539062 C 11.300781 25.046875 13.386719 25.171875 15.433594 25.171875 C 17.480469 25.171875 19.566406 25.050781 21.550781 24.539062 C 21.671875 24.507812 23.316406 24.0625 23.316406 23.96875 " fill-opacity="1" fill-rule="nonzero"/><path fill="#d6943c" d="M 7.914062 23.019531 C 9.601562 24.589844 13.28125 24.5 15.414062 24.5 C 17.542969 24.5 21.222656 24.589844 22.914062 23.019531 C 21.222656 21.449219 17.542969 21.539062 15.414062 21.539062 C 13.28125 21.539062 9.605469 21.449219 7.914062 23.019531 " fill-opacity="1" fill-rule="nonzero"/><path fill="#ffe600" d="M 12.441406 19.15625 C 11.460938 19.992188 6.0625 22.53125 9.515625 23.546875 C 12.988281 24.574219 17.398438 24.519531 20.898438 23.660156 C 22.097656 23.363281 23.085938 22.890625 21.902344 21.769531 C 20.855469 20.773438 19.46875 20.179688 18.300781 19.335938 C 17.464844 18.730469 16.5625 17.25 15.511719 17.03125 C 14.257812 16.769531 13.238281 18.472656 12.441406 19.15625 " fill-opacity="1" fill-rule="nonzero"/><path fill="#ffce00" d="M 17.703125 19.039062 C 16.957031 18.4375 16.066406 16.996094 14.988281 17.003906 C 15.390625 17.285156 15.601562 17.875 15.871094 18.265625 C 16.351562 18.960938 16.996094 19.457031 17.679688 19.949219 C 18.347656 20.433594 21.148438 22.257812 19.539062 23.085938 C 18.210938 23.769531 16.496094 23.746094 15.042969 23.765625 C 13.035156 23.792969 10.957031 23.71875 9.007812 23.222656 C 12.351562 24.476562 16.96875 24.300781 20.394531 23.511719 C 21.582031 23.234375 22.75 22.789062 21.527344 21.636719 C 20.40625 20.578125 18.902344 20 17.703125 19.039062 " fill-opacity="1" fill-rule="nonzero"/><path fill="#faff9f" d="M 12.265625 19.882812 C 11.417969 20.84375 9.957031 21.167969 9.277344 22.292969 C 8.257812 23.96875 11.644531 24.066406 12.648438 24.148438 C 14.125 24.265625 15.621094 24.214844 17.097656 24.144531 C 18.398438 24.085938 20.03125 24.121094 21.226562 23.539062 C 22.398438 22.96875 18.265625 22.835938 17.964844 22.847656 C 16.898438 22.871094 13.765625 23.363281 13.367188 21.933594 C 13.042969 20.769531 13.867188 19.535156 14.167969 18.449219 C 14.53125 17.136719 12.355469 19.78125 12.265625 19.882812 " fill-opacity="1" fill-rule="nonzero"/><g clip-path="url(#29f67f1240)"><g clip-path="url(#4ab086bb61)"><path fill="url(#da9057a6c4)" d="M 4.855469 25.132812 L 7.28125 1.65625 L 26.359375 3.558594 L 23.933594 27.035156 Z M 4.855469 25.132812 " fill-rule="nonzero"/></g></g><path fill="#f4f2f2" d="M 15.367188 0.289062 C 13.078125 0.289062 10.554688 0.410156 8.402344 1.253906 C 6.917969 1.835938 7.03125 2.59375 7.03125 3.964844 C 7.03125 5.335938 6.917969 6.089844 8.402344 6.675781 C 10.726562 7.585938 13.484375 7.683594 15.953125 7.636719 C 18.09375 7.59375 20.460938 7.457031 22.453125 6.625 C 23.851562 6.042969 23.707031 5.265625 23.707031 3.964844 C 23.707031 2.660156 23.851562 1.886719 22.453125 1.304688 C 20.289062 0.402344 17.6875 0.289062 15.367188 0.289062 " fill-opacity="1" fill-rule="nonzero"/><g clip-path="url(#b9312ff23f)"><g clip-path="url(#d827bee597)"><path fill="url(#71eddd44e9)" d="M 6.488281 0.0117188 L 24.179688 0.0117188 L 24.179688 7.914062 L 6.488281 7.914062 Z M 6.488281 0.0117188 " fill-rule="nonzero"/></g></g><g clip-path="url(#f349cca976)"><g clip-path="url(#c71fa99421)"><path fill="url(#2d10423a12)" d="M 6.945312 0.40625 L 6.945312 7.523438 L 23.710938 7.523438 L 23.710938 0.40625 Z M 6.945312 0.40625 " fill-rule="nonzero"/></g></g><path fill="#a85e14" d="M 23.265625 2.09375 C 23.253906 3.378906 23.328125 4.695312 22.027344 5.375 C 19.519531 6.675781 16.054688 6.464844 13.320312 6.421875 C 11.957031 6.402344 8.605469 6.726562 7.59375 5.484375 C 7.0625 4.832031 7.445312 2.894531 7.46875 2.09375 C 6.976562 2.636719 6.992188 5.433594 7.574219 5.941406 C 9.394531 7.515625 13.148438 7.402344 15.367188 7.402344 C 17.589844 7.402344 21.34375 7.515625 23.160156 5.941406 C 23.742188 5.433594 23.761719 2.636719 23.265625 2.09375 " fill-opacity="1" fill-rule="nonzero"/><path fill="#ffb600" d="M 23.273438 2.949219 C 23.273438 3.375 21.839844 3.835938 21.574219 3.929688 C 19.613281 4.625 17.457031 4.78125 15.390625 4.78125 C 13.292969 4.78125 11.121094 4.59375 9.140625 3.882812 C 9.039062 3.84375 7.378906 2.984375 7.46875 2.9375 C 7.6875 2.824219 9.027344 3.460938 9.265625 3.523438 C 11.257812 4.027344 13.34375 4.15625 15.390625 4.15625 C 17.433594 4.15625 19.523438 4.035156 21.507812 3.523438 C 21.628906 3.492188 23.273438 3.046875 23.273438 2.949219 " fill-opacity="1" fill-rule="nonzero"/><path fill="#d6943c" d="M 7.917969 2.175781 C 10.191406 3.324219 13.222656 3.316406 15.699219 3.28125 C 17.3125 3.261719 18.933594 3.167969 20.527344 2.910156 C 21.296875 2.785156 22.476562 2.671875 23.066406 2.09375 C 21.03125 0.535156 17.136719 0.730469 14.738281 0.765625 C 13.03125 0.789062 9.117188 0.574219 7.917969 2.175781 " fill-opacity="1" fill-rule="nonzero"/><path fill="#ffb600" d="M 17.617188 1.304688 C 17.894531 1.308594 22.320312 1.546875 22.320312 2 C 22.320312 1.265625 16.058594 0.976562 15.570312 0.96875 C 15.105469 0.960938 8.773438 1.019531 8.773438 1.871094 C 8.773438 2.289062 13.847656 2.5 14.183594 2.515625 C 14.597656 2.535156 17.171875 2.980469 16.605469 2.1875 C 16.027344 1.378906 16.882812 1.292969 17.617188 1.304688 " fill-opacity="1" fill-rule="nonzero"/><path fill="#ffe600" d="M 16.960938 12.253906 C 17.566406 11.738281 18.5 11.515625 18.945312 10.828125 C 19.558594 9.875 17.722656 9.800781 17.136719 9.734375 C 16.445312 9.65625 10.570312 9.570312 12.105469 10.945312 C 13.476562 12.175781 15.285156 12.714844 15.554688 14.8125 C 15.632812 15.4375 15.164062 15.109375 15.148438 14.710938 C 15.117188 13.683594 16.199219 12.769531 16.960938 12.253906 " fill-opacity="1" fill-rule="nonzero"/><path fill="#ffce00" d="M 16.402344 12.675781 C 16.1875 12.429688 15.664062 12.796875 15.421875 12.59375 C 14.914062 12.183594 14.402344 11.75 14.003906 11.234375 C 12.894531 9.800781 14.949219 9.734375 16.011719 9.652344 C 15.546875 9.636719 11.535156 9.625 12.324219 10.675781 C 13.230469 11.886719 14.828125 12.113281 15.574219 13.566406 C 15.804688 13.230469 16.09375 12.9375 16.402344 12.675781 " fill-opacity="1" fill-rule="nonzero"/><path fill="#faff9f" d="M 18.785156 10.269531 C 18.785156 11.003906 12.097656 11.003906 12.097656 10.269531 C 12.097656 9.542969 18.785156 9.542969 18.785156 10.269531 " fill-opacity="1" fill-rule="nonzero"/></svg>